PathFileType	4	(X/Y/Z)	C:\Users\Basilio\Documents\Thesis Gigler\squatting_fais\c3dfiles\041\SJ_pre3\markers_experimental.trc
DataRate	CameraRate	NumFrames	NumMarkers	Units	OrigDataRate	OrigDataStartFrame	OrigNumFrames
200.000000	200.000000	4	62	mm	200.000000	1049	1679
Frame#	Time	FHD			LBHD			RBHD			C7			T10			CLAV			LSHO			LUUPA			LMUPA			LDUPA			LLEP			LMEP			LRAD			LUL			LRFIN			RSHO			RUPA1			RMUPA			RDUPA			RLEP			RMEP			RRAD			RUL			RUFIN			LASI			RASI			USACR			LSACR			RSACR			LTHI1			LTHI2			LTHI3			LTHI4			LLFC			LMFC			LTIB1			LTIB2			LTIB3			LTIB4			LLMAL			LMMAL			LHEE			LMT1			LMT2			LMT5			RTHI			RTHI2			RTHI3			RTHI4			RLFC			RMFC			RTIB1			RTIB2			RTIB3			RTIB4			RLMAL			RMMAL			RHEE			RMT1			RMT2			RMT5			*61			
		X1	Y1	Z1	X2	Y2	Z2	X3	Y3	Z3	X4	Y4	Z4	X5	Y5	Z5	X6	Y6	Z6	X7	Y7	Z7	X8	Y8	Z8	X9	Y9	Z9	X10	Y10	Z10	X11	Y11	Z11	X12	Y12	Z12	X13	Y13	Z13	X14	Y14	Z14	X15	Y15	Z15	X16	Y16	Z16	X17	Y17	Z17	X18	Y18	Z18	X19	Y19	Z19	X20	Y20	Z20	X21	Y21	Z21	X22	Y22	Z22	X23	Y23	Z23	X24	Y24	Z24	X25	Y25	Z25	X26	Y26	Z26	X27	Y27	Z27	X28	Y28	Z28	X29	Y29	Z29	X30	Y30	Z30	X31	Y31	Z31	X32	Y32	Z32	X33	Y33	Z33	X34	Y34	Z34	X35	Y35	Z35	X36	Y36	Z36	X37	Y37	Z37	X38	Y38	Z38	X39	Y39	Z39	X40	Y40	Z40	X41	Y41	Z41	X42	Y42	Z42	X43	Y43	Z43	X44	Y44	Z44	X45	Y45	Z45	X46	Y46	Z46	X47	Y47	Z47	X48	Y48	Z48	X49	Y49	Z49	X50	Y50	Z50	X51	Y51	Z51	X52	Y52	Z52	X53	Y53	Z53	X54	Y54	Z54	X55	Y55	Z55	X56	Y56	Z56	X57	Y57	Z57	X58	Y58	Z58	X59	Y59	Z59	X60	Y60	Z60	X61	Y61	Z61	X62	Y62	Z62	

1050	5.245	28.19764518737794	1228.857055664063	-925.465270996094	-148.7183532714844	1166.868408203125	-1004.523681640625	-129.9795379638672	1168.620483398438	-850.1649169921877	-204.2905426025391	1084.288940429688	-936.7910766601565	-432.7655029296876	891.0183715820315	-935.9211425781252	-101.7557220458985	944.6268310546877	-943.8140258789065	-134.8900604248047	1031.698608398438	-1107.646362304688	-253.1729736328126	978.2081298828127	-1256.365112304688	-273.5126953125001	933.9272460937502	-1257.774169921875	-304.8658752441407	961.620788574219	-1301.14453125	-347.6369628906251	940.1862792968752	-1327.795166015625	-417.417938232422	967.731140136719	-1272.89306640625	-466.7817382812501	778.048278808594	-1144.775756835938	-478.1697998046876	727.3348388671876	-1200.857055664063	-433.9592895507814	737.2264404296876	-1108.309692382813	-111.1058120727539	1013.686157226563	-775.9158935546877	-194.4536132812501	913.1236572265627	-594.4113769531251	-190.8229675292969	866.397155761719	-614.5098266601564	-221.085922241211	851.9683837890627	-566.9409790039064	-251.9620208740235	813.5471191406252	-552.3745117187501	-328.3659362792969	868.7315673828127	-562.2028198242189	-455.9113159179689	743.0973510742189	-702.9752197265626	-427.4466247558595	734.7063598632814	-757.8917236328126	-439.5379028320314	672.1098022460939	-675.4605712890626	-412.6372375488282	664.4051513671876	-1038.22021484375	-413.2405700683595	678.1389160156251	-831.614929199219	-536.5043945312501	817.4146118164065	-937.500427246094	-568.7115478515626	806.7730712890627	-963.7850341796877	-566.5831909179689	804.6924438476565	-908.2335205078127	-488.7681579589845	578.5025634765626	-1153.305786132813	-404.3643798828126	574.2543334960939	-1167.03955078125	-379.7272338867188	612.9078369140626	-1153.255004882813	-371.8025207519532	523.6215820312501	-1174.40380859375	-217.0188140869141	453.9458007812501	-1190.735229492188	-192.7422637939454	424.1145324707032	-1086.108642578125	-242.5737457275391	268.6365051269532	-1158.974487304688	-313.8079833984376	258.6913146972657	-1218.67236328125	-279.9222412109376	239.9231567382813	-1195.8642578125	-309.3697814941407	164.2416229248047	-1169.810424804688	-406.3476867675782	102.6657409667969	-1212.207275390625	-362.7348022460938	100.9350662231446	-1132.983764648438	-470.4126586914064	55.02855300903322	-1178.271362304688	-252.5476989746094	57.92580413818361	-1163.985595703125	-248.2105865478516	59.01924896240236	-1208.924682617188	-291.3674926757813	38.38605499267579	-1264.486450195313	-420.6027832031251	551.6613159179689	-727.4871215820314	-353.8292846679688	558.7513427734376	-723.0094604492189	-336.9157714843751	585.5965576171876	-731.6629028320314	-299.6684875488282	491.8942871093751	-722.8402709960939	-211.7867431640626	438.0881652832032	-718.6639404296876	-190.4177856445313	416.4207458496095	-829.245300292969	-232.2961883544922	282.4013671875001	-719.9605102539064	-341.1045227050782	248.7656402587891	-703.4969482421876	-298.2938842773438	228.0643463134766	-706.2195434570314	-299.9403076171876	175.0674285888672	-731.2363891601564	-400.0924377441407	94.29894256591798	-711.3380737304689	-367.9327392578126	98.68593597412112	-791.7607421875002	-464.0908508300782	49.79700469970705	-756.7788085937501	-245.098617553711	52.65607833862306	-752.0576782226564	-246.5041198730469	57.42939376831056	-700.5928344726564	-292.8175354003907	37.30648422241212	-653.4700317382814	-4216.960449218751	853.134704589844	-3944.606933593751	
1051	5.25	29.0216407775879	1228.658569335938	-925.4857177734377	-148.3956604003907	1166.783935546875	-1004.50537109375	-129.7625885009766	1168.475830078125	-850.1898193359377	-203.936752319336	1084.15380859375	-936.7053222656252	-432.5579528808595	891.057312011719	-935.8799438476565	-101.2813034057617	944.4315185546877	-943.896423339844	-134.6961364746094	1031.622314453125	-1107.657104492188	-253.0478515625001	978.1943359375002	-1256.386108398438	-273.4442749023438	933.8733520507815	-1257.68896484375	-304.7177429199219	961.6116943359377	-1301.050415039063	-347.5062561035157	940.194274902344	-1327.776733398438	-417.2450561523439	967.772399902344	-1272.812744140625	-466.7627563476564	778.1639404296877	-1144.650268554688	-478.1710205078126	727.4195556640626	-1200.769409179688	-433.9008789062501	737.2854003906251	-1108.224853515625	-110.9980239868164	1013.426208496094	-775.9321899414065	-194.162582397461	913.074157714844	-594.1827392578126	-190.2881317138672	866.0530395507815	-614.6139526367189	-220.6698608398438	851.8604125976565	-566.9985351562501	-251.3925781250001	813.4732666015627	-552.5498657226564	-327.8169250488282	868.4517211914065	-562.2043457031251	-455.6080627441407	743.0661010742189	-702.9491577148439	-427.2106018066407	734.7146606445314	-757.8578491210939	-439.3815002441407	672.1047363281251	-675.3980102539064	-412.6021728515626	664.3136596679689	-1038.139892578125	-413.2277221679689	678.0645751953126	-831.6043090820315	-536.2723999023439	817.4224853515627	-937.4046020507815	-568.5039062500001	806.7910766601565	-963.647888183594	-566.4688720703126	804.7395019531252	-908.1054687500002	-488.7115478515626	578.5198974609376	-1153.315551757813	-404.3206176757814	574.2222290039064	-1166.971557617188	-379.6353759765626	612.9686279296876	-1153.247802734375	-371.7283630371094	523.5709838867189	-1174.380249023438	-217.0786590576172	453.9507141113282	-1190.812255859375	-192.6628875732422	424.047576904297	-1086.12744140625	-242.5587005615235	268.5642089843751	-1159.099365234375	-313.7833251953126	258.7386474609376	-1218.713623046875	-279.9185485839844	239.9072570800782	-1195.942749023438	-309.3730468750001	164.2180328369141	-1169.852661132813	-406.391326904297	102.6658401489258	-1212.239501953125	-362.7422485351563	100.9344329833985	-1132.992309570313	-470.4464416503907	55.04318237304689	-1178.233642578125	-252.5087432861329	57.8875198364258	-1163.983764648438	-248.1939086914063	59.01636123657228	-1208.931884765625	-291.4034729003907	38.34797286987305	-1264.532958984375	-420.4675903320314	551.6637573242189	-727.4565429687501	-353.6079406738282	558.6879272460939	-723.0656127929689	-336.7033691406251	585.5382080078126	-731.6829833984376	-299.5294494628907	491.8558044433595	-722.8892211914064	-211.6647644042969	438.058563232422	-718.7084350585939	-190.35595703125	416.3362426757814	-829.3583984375002	-232.1454315185547	282.2149047851563	-720.0619506835939	-341.0355529785157	248.8287811279297	-703.5960083007814	-298.2432861328126	228.0534057617188	-706.2761840820314	-299.9331054687501	175.0357513427735	-731.2730102539064	-400.0834350585939	94.28877258300783	-711.3663330078126	-367.9134826660157	98.670524597168	-791.754333496094	-464.0692443847657	49.85865783691408	-756.8187866210939	-245.1270294189454	52.65747451782228	-752.0809326171876	-246.5499725341797	57.40264892578126	-700.5807495117189	-292.8244323730469	37.3252296447754	-653.4691772460939	-4217.270507812501	853.2374267578127	-3944.592773437501	
1052	5.255	29.33783912658692	1228.463989257813	-925.5176391601565	-148.111083984375	1166.701049804688	-1004.498046875	-129.5132904052735	1168.404296875	-850.2512817382815	-203.6218872070313	1084.112426757813	-936.685485839844	-432.379852294922	891.047302246094	-935.8601074218752	-100.9669570922852	944.278747558594	-943.8694458007815	-134.3917541503907	1031.473510742188	-1107.654418945313	-252.8808135986329	978.220886230469	-1256.3515625	-273.2310791015626	933.8682250976565	-1257.671997070313	-304.6084899902344	961.6385498046877	-1301.013061523438	-347.4148864746094	940.2351684570315	-1327.738891601563	-417.1297607421876	967.8664550781252	-1272.718994140625	-466.5198059082032	778.2153930664065	-1144.622436523438	-478.0468750000001	727.4886474609376	-1200.689331054688	-433.7721557617189	737.3151245117189	-1108.201171875	-110.6872177124024	1013.169921875	-775.8569335937502	-193.8107910156251	912.7852783203127	-594.1966552734376	-189.9387817382813	866.006530761719	-614.5729370117189	-220.0801849365235	851.9490966796877	-566.9414672851564	-251.1421051025391	813.2260742187502	-552.5258178710939	-327.4114685058594	868.3413696289065	-562.2036132812501	-455.3519287109376	743.0457763671876	-702.9287719726564	-427.0233154296876	734.7120361328126	-757.8468017578126	-439.0801086425782	672.1916503906251	-675.4673461914064	-412.102020263672	664.8722534179689	-1038.085571289063	-413.1726684570314	678.0193481445314	-831.5034179687502	-536.3939819335939	817.757019042969	-937.2913818359377	-568.3013916015626	806.8522949218752	-963.6229248046877	-566.3908691406251	804.8066406250002	-908.043640136719	-488.5972900390626	578.5852050781251	-1153.239379882813	-404.2869262695314	574.2606201171876	-1166.91845703125	-379.6065368652344	612.9634399414064	-1153.245849609375	-371.7222595214844	523.6553344726564	-1174.399536132813	-217.7106018066407	454.2092285156251	-1190.99755859375	-192.6821899414063	423.9220275878907	-1086.15869140625	-242.5040130615235	268.5817260742188	-1159.127319335938	-313.8726806640626	258.7137756347657	-1218.721801757813	-280.0330200195313	240.1978912353516	-1195.886962890625	-309.3264770507813	164.2635955810547	-1169.967163085938	-406.3619384765626	102.636459350586	-1212.25	-362.7409667968751	100.9396896362305	-1133.002319335938	-470.4337158203126	54.98582458496095	-1178.230346679688	-252.507308959961	57.91567230224611	-1164.049682617188	-248.2366943359376	59.03139877319337	-1208.961303710938	-291.4424133300782	38.33530807495118	-1264.506591796875	-420.3180541992189	551.6852416992189	-727.4859619140626	-353.4501037597657	558.6791381835939	-723.0600585937501	-336.4813537597657	585.5208129882814	-731.7252807617189	-299.3613586425782	491.7945251464845	-722.9057006835939	-211.494369506836	438.0534057617189	-718.8574829101564	-190.2610321044922	416.258758544922	-829.4631958007815	-232.0952453613282	282.1448669433594	-720.1564941406251	-340.9660339355469	248.8013763427735	-703.6397705078126	-298.2105102539063	227.9494934082032	-706.4026489257814	-299.8609619140626	174.9956665039063	-731.3331909179689	-400.0491638183595	94.29521942138673	-711.3789672851564	-367.8541870117188	98.60344696044925	-791.7812500000002	-464.154022216797	49.83238220214845	-756.7757568359376	-245.1034088134766	52.62256240844728	-752.0748291015626	-246.549301147461	57.43467330932619	-700.5565795898439	-292.8160095214844	37.27075576782227	-653.4514770507814	-4217.112304687501	853.168884277344	-3944.522216796876	
1053	5.26	29.48201942443848	1228.374145507813	-925.515808105469	-147.7465057373047	1166.633056640625	-1004.514221191406	-129.2623138427735	1168.44091796875	-850.2086181640627	-203.4253540039063	1084.109985351563	-936.5977783203127	-432.1901245117189	891.1282958984377	-935.765319824219	-100.9280014038086	944.1365356445315	-943.880798339844	-134.1669464111328	1031.391479492188	-1107.647705078125	-252.7564239501954	978.2625732421877	-1256.3154296875	-273.1271057128907	933.8140258789065	-1257.71826171875	-304.4532775878907	961.693786621094	-1301.011352539063	-347.2394409179688	940.3108520507815	-1327.70068359375	-417.0454406738282	967.972106933594	-1272.65673828125	-466.5366821289064	778.3128051757815	-1144.52294921875	-478.0691528320314	727.6466064453126	-1200.620727539063	-433.5550537109376	737.4116210937501	-1108.211547851563	-110.4024887084961	1013.006042480469	-775.8140869140627	-193.3987426757813	912.5554199218752	-594.2780151367189	-189.5867004394532	865.8638305664065	-614.6409912109376	-219.4903259277344	851.8020019531252	-566.9830932617189	-250.8397369384766	813.0212402343752	-552.5194702148439	-327.0709533691407	868.223571777344	-562.1524658203126	-455.0347900390626	743.0286865234376	-702.9218750000001	-426.6539916992189	734.7493896484376	-757.8920898437501	-438.7439880371095	672.2022094726564	-675.5520629882814	-411.6822814941407	665.1312255859376	-1038.055786132813	-413.203094482422	677.9868164062501	-831.5532226562502	-536.1766967773439	817.7805175781252	-937.2547607421877	-567.9263916015626	806.916687011719	-963.5920410156252	-566.3190307617189	804.8642578125002	-908.017761230469	-488.6292114257814	578.7056884765626	-1153.149291992188	-404.2259216308595	574.2988281250001	-1166.886108398438	-379.1991882324219	612.8010253906251	-1153.165161132813	-371.6860961914063	523.7044067382814	-1174.363647460938	-217.6852264404297	454.1871948242189	-1191.05419921875	-192.7189483642579	423.4945373535157	-1085.445434570313	-242.4973449707032	268.5440368652344	-1159.18408203125	-313.8448486328126	258.6833190917969	-1218.82470703125	-279.9602966308594	239.8995056152344	-1196.014404296875	-309.3775024414063	164.3344421386719	-1170.039184570313	-406.3895568847657	102.6309814453125	-1212.235595703125	-362.7458190917969	100.9379959106446	-1133.04296875	-470.4168395996095	54.97596740722658	-1178.278198242188	-252.5401916503907	57.91331481933595	-1164.061279296875	-248.2446594238282	59.020809173584	-1208.9453125	-291.4298095703126	38.30258560180665	-1264.559204101563	-420.1620483398439	551.6525268554689	-727.4572143554689	-353.3547363281251	558.6428222656251	-723.0631103515626	-336.2984619140626	585.4476318359376	-731.7414550781251	-299.2549133300782	491.7532958984376	-722.9562377929689	-211.4060058593751	438.0054626464845	-718.9086914062501	-190.1665344238282	416.1206359863282	-829.5552368164065	-232.0445861816407	281.9816894531251	-720.2376708984376	-340.9226379394532	248.8214416503907	-703.7275390625001	-298.0405273437501	227.9672241210938	-706.5412597656251	-299.8172302246094	174.9581604003907	-731.3464965820314	-400.0279541015626	94.31562805175783	-711.4061279296876	-367.9178161621094	98.59839630126956	-791.8277587890627	-464.0384216308595	49.79676055908205	-756.8114013671876	-245.0986480712891	52.64440536499025	-752.0609741210939	-246.5340423583985	57.41110229492189	-700.5910034179689	-292.8025817871094	37.30285644531251	-653.4575195312501	-4216.602539062501	853.0194091796877	-3944.536132812501	
